2600 0 1 0           
12 Elysium, Inc 14 ACIS 29.0.1 NT 24 Wed Jan 24 03:39:49 2024 
1 9.9999999999999995e-007 1e-010 
T @77 WJMT7FBG352_YXJWF_Y4HG7KS3SMMV6CZ88MJRRUP8MUSM7EBBSMKZQEK8AVKGN7FCNUQPP8KCSKK 
body $1 -1 -1 $-1 $2 $-1 $-1 F #
string_attrib-name_attrib-gen-attrib $-1 -1 $-1 $-1 $0 2 1 0 1 1 1 1 1 1 1 1 1 1 1 0 1 1 1 @13 ELY_PART_NAME @12 solid-object #
lump $-1 -1 -1 $-1 $-1 $3 $0 F #
shell $-1 -1 -1 $-1 $-1 $-1 $4 $-1 $2 F #
face $5 -1 -1 $-1 $6 $7 $3 $-1 $8 forward single F F #
rgb_color-st-attrib $-1 -1 $-1 $-1 $4 2 1 2 1 1 1 1 1 1 1 1 1 1 1 0 1 1 1 0.792156862745098 0.81960784313725499 0.93333333333333302 #
face $9 -1 -1 $-1 $10 $11 $3 $-1 $12 forward single F F #
loop $-1 -1 -1 $-1 $-1 $13 $4 F unknown #
plane-surface $14 -1 -1 $-1 -7.1999999999999993 0 3.6000000000000001 -0 1 0 0 -0 1 forward_v I I I I #
rgb_color-st-attrib $-1 -1 $-1 $-1 $6 2 1 2 1 1 1 1 1 1 1 1 1 1 1 0 1 1 1 0.792156862745098 0.81960784313725499 0.93333333333333302 #
face $15 -1 -1 $-1 $16 $17 $3 $-1 $18 forward single F F #
loop $-1 -1 -1 $-1 $-1 $19 $6 F unknown #
spline-surface $20 -1 -1 $-1 forward { exactsur 0 full nurbs 2 2 both open periodic high none 2 4 
	0 2 1 2 
	0 2 0.33333333333333331 2 0.66666666666666663 2 1 2 
	-2.6146604455779494 -1.0979074944031735 -6.9126743182691021e-016 1 
	-1.3249850681141702 -1.4017542509913803 -3.3530831706066485e-016 0.99331537704532402 
	1.7949047270229237e-015 -1.401754250991381 8.4520811273679821e-032 1 
	-2.6146604455779503 -1.0979074944031737 4.5287247362816894 0.50000000000000011 
	-1.3249850681141708 -1.4017542509913801 2.2949414572438553 0.49665768852266212 
	1.7949047270229237e-015 -1.401754250991381 8.4520811273679821e-032 0.50000000000000011 
	1.3073302227889767 -1.0979074944031737 2.2643623681408469 1 
	0.66249253405708763 -1.4017542509913803 1.1474707286219281 0.99331537704532402 
	1.7949047270229237e-015 -1.401754250991381 8.4520811273679821e-032 1 
	5.2293208911559041 -1.0979074944031737 1.934182561437825e-015 0.50000000000000011 
	2.6499701362283461 -1.4017542509913801 9.9514437863814153e-016 0.49665768852266212 
	1.7949047270229237e-015 -1.401754250991381 8.4520811273679821e-032 0.50000000000000011 
	1.3073302227889794 -1.0979074944031737 -2.2643623681408442 1 
	0.66249253405708919 -1.4017542509913803 -1.1474707286219277 0.99331537704532402 
	1.7949047270229237e-015 -1.401754250991381 8.4520811273679821e-032 1 
	-2.6146604455779445 -1.0979074944031737 -4.5287247362816938 0.50000000000000011 
	-1.3249850681141677 -1.4017542509913801 -2.2949414572438567 0.49665768852266212 
	1.7949047270229237e-015 -1.401754250991381 8.4520811273679821e-032 0.50000000000000011 
	-2.6146604455779494 -1.0979074944031737 -1.3316745409337563e-015 1 
	-1.3249850681141702 -1.4017542509913803 -6.5983606157747658e-016 0.99331537704532402 
	1.7949047270229237e-015 -1.401754250991381 8.4520811273679821e-032 1 
	0 
	0 
	0 
	0 
	0 
	0 
	0 
	F 1 F 0 F 1 F 0 } I I I I #
coedge $-1 -1 -1 $-1 $21 $21 $22 $23 forward $7 $-1 #
rgb_color-st-attrib $-1 -1 $-1 $-1 $8 2 1 2 1 1 1 1 1 1 1 1 1 1 1 0 1 1 1 0.792156862745098 0.81960784313725499 0.93333333333333302 #
rgb_color-st-attrib $-1 -1 $-1 $-1 $10 2 1 2 1 1 1 1 1 1 1 1 1 1 1 0 1 1 1 0.792156862745098 0.81960784313725499 0.93333333333333302 #
face $24 -1 -1 $-1 $-1 $25 $3 $-1 $26 forward single F F #
loop $-1 -1 -1 $-1 $-1 $27 $10 F unknown #
cone-surface $28 -1 -1 $-1 4.4408920985006262e-016 -0.61123205612847686 -2.2204460492503131e-016 0 1 0 -0.1726920808787023 0 -2.9950254498420841 1 I I 0 1 2.9999999999999987 forward I I I I #
coedge $-1 -1 -1 $-1 $29 $30 $31 $32 forward $11 $33 #
rgb_color-st-attrib $-1 -1 $-1 $-1 $12 2 1 2 1 1 1 1 1 1 1 1 1 1 1 0 1 1 1 0.792156862745098 0.81960784313725499 0.93333333333333302 #
coedge $-1 -1 -1 $-1 $13 $13 $34 $35 forward $7 $-1 #
coedge $-1 -1 -1 $-1 $34 $27 $13 $23 reversed $17 $-1 #
edge $-1 -1 -1 $-1 $36 0 $37 3.1415926535897931 $13 $38 forward @7 unknown F #
rgb_color-st-attrib $-1 -1 $-1 $-1 $16 2 1 2 1 1 1 1 1 1 1 1 1 1 1 0 1 1 1 0.792156862745098 0.81960784313725499 0.93333333333333302 #
loop $-1 -1 -1 $-1 $-1 $39 $16 F unknown #
spline-surface $40 -1 -1 $-1 forward { exactsur 1 full nurbs 2 2 both open periodic none none 2 4 
	0 2 1 2 
	0 2 0.33333333333333331 2 0.66666666666666663 2 1 2 
	-4.9303806576313238e-032 -0.61123205612847709 2.9999999999999996 1 
	-5.5026370847370866e-032 -1.0071217231600731 2.9999999999999996 0.78400283518489267 
	-2.8520856374543935e-017 -1.097907494403171 2.6146604455779499 1 
	5.1961524227066294 -0.61123205612847709 2.9999999999999991 0.50000000000000011 
	5.1961524227066294 -1.0071217231600731 2.9999999999999987 0.39200141759244644 
	4.5287247362816867 -1.097907494403171 2.6146604455779494 0.50000000000000011 
	2.5980762113533151 -0.61123205612847709 -1.4999999999999989 1 
	2.598076211353316 -1.0071217231600731 -1.4999999999999993 0.78400283518489267 
	2.2643623681408442 -1.097907494403171 -1.307330222788974 1 
	6.8654264713317791e-017 -0.61123205612847709 -5.9999999999999973 0.50000000000000011 
	6.8654264713317926e-017 -1.0071217231600731 -5.9999999999999973 0.39200141759244644 
	3.1315007080839487e-017 -1.097907494403171 -5.2293208911558979 0.50000000000000011 
	-2.5980762113533151 -0.61123205612847709 -1.5000000000000004 1 
	-2.5980762113533156 -1.0071217231600731 -1.5000000000000007 0.78400283518489267 
	-2.2643623681408434 -1.097907494403171 -1.3073302227889754 1 
	-5.196152422706632 -0.61123205612847709 2.9999999999999956 0.50000000000000011 
	-5.1961524227066329 -1.0071217231600731 2.9999999999999956 0.39200141759244644 
	-4.5287247362816894 -1.097907494403171 2.6146604455779463 0.50000000000000011 
	-7.3478807948841168e-016 -0.61123205612847709 2.9999999999999991 1 
	-7.3478807948841197e-016 -1.0071217231600731 2.9999999999999996 0.78400283518489267 
	-6.6892796548138953e-016 -1.097907494403171 2.6146604455779494 1 
	0 
	0 
	0 
	0 
	0 
	0 
	0 
	F 1 F 0 F 1 F 0 } I I I I #
coedge $-1 -1 -1 $-1 $22 $41 $42 $43 forward $17 $-1 #
rgb_color-st-attrib $-1 -1 $-1 $-1 $18 2 1 2 1 1 1 1 1 1 1 1 1 1 1 0 1 1 1 0.792156862745098 0.81960784313725499 0.93333333333333302 #
coedge $-1 -1 -1 $-1 $44 $19 $45 $46 forward $11 $47 #
coedge $-1 -1 -1 $-1 $19 $44 $44 $48 reversed $11 $49 #
coedge $-1 -1 -1 $-1 $45 $39 $19 $32 reversed $25 $50 #
edge $-1 -1 -1 $-1 $51 0 $52 4.7123889803846897 $19 $53 forward @7 unknown F #
pcurve $-1 -1 -1 $-1 0 forward { exppc 2 nubs 1 open 2 
	0 1 4.7123889803846897 1 
	0 1 
	0 0.24401693583673348 
	0.00050000000000000001 
	-1 
	spline forward { ref 0 } I I I I 
	} 0 0 #
coedge $-1 -1 -1 $-1 $42 $22 $21 $35 reversed $17 $-1 #
edge $-1 -1 -1 $-1 $37 0 $36 3.1415926535897922 $21 $54 forward @7 unknown F #
vertex $-1 -1 -1 $-1 $23 $55 #
vertex $-1 -1 -1 $-1 $23 $56 #
ellipse-curve $-1 -1 -1 $-1 0 0 0 0 1 0 0 0 3 1 I I #
coedge $-1 -1 -1 $-1 $31 $57 $58 $59 forward $25 $60 #
rgb_color-st-attrib $-1 -1 $-1 $-1 $26 2 1 2 1 1 1 1 1 1 1 1 1 1 1 0 1 1 1 0.792156862745098 0.81960784313725499 0.93333333333333302 #
coedge $-1 -1 -1 $-1 $27 $61 $57 $62 forward $17 $-1 #
coedge $-1 -1 -1 $-1 $61 $34 $27 $43 reversed $17 $-1 #
edge $-1 -1 -1 $-1 $63 0 $37 0.61123205612847697 $27 $64 forward @7 unknown F #
coedge $-1 -1 -1 $-1 $30 $29 $30 $48 forward $11 $65 #
coedge $-1 -1 -1 $-1 $58 $31 $29 $46 reversed $25 $66 #
edge $-1 -1 -1 $-1 $52 0 $51 1.5707963267948966 $29 $67 forward @7 unknown F #
pcurve $-1 -1 -1 $-1 0 forward { exppc 3 nubs 1 open 2 
	0 1 1.5707963267948966 1 
	0 0.24401693583673348 
	0 0 
	0.00050000000000000001 
	-1 
	spline forward { ref 0 } I I I I 
	} 0 0 #
edge $-1 -1 -1 $-1 $51 0 $68 1 $44 $69 forward @7 unknown F #
pcurve $-1 -1 -1 $-1 0 forward { exppc 4 nubs 1 open 2 
	-1 1 0 1 
	1 1 
	0 1 
	0.00050000000000000001 
	-1 
	spline forward { ref 0 } I I I I 
	} 0 0 #
pcurve $-1 -1 -1 $-1 0 forward { exppc 5 nubs 1 open 2 
	-4.7123889803846897 1 0 1 
	1 0 
	1 0.75598306416326644 
	0.00050000000000000001 
	-1 
	spline forward { ref 1 } I I I I 
	} 0 0 #
vertex $-1 -1 -1 $-1 $32 $70 #
vertex $-1 -1 -1 $-1 $32 $71 #
ellipse-curve $-1 -1 -1 $-1 0 -1.0979074944031699 -8.8817841970012523e-016 -1.8029756677979295e-032 -1 1.0615365242768172e-016 -2.6146604455779499 0 -4.4408920985006262e-016 1 I I #
ellipse-curve $-1 -1 -1 $-1 8.1148324959426865e-016 0 0 0 1 0 -4.4408920985006262e-016 0 -3 1 I I #
point $-1 -1 -1 $-1 0 0 3 #
point $-1 -1 -1 $-1 3.6739403974420599e-016 0 -3 #
coedge $-1 -1 -1 $-1 $39 $72 $41 $62 reversed $25 $73 #
coedge $-1 -1 -1 $-1 $72 $45 $39 $59 reversed $25 $74 #
edge $-1 -1 -1 $-1 $75 0 $52 1 $39 $76 forward @7 unknown F #
pcurve $-1 -1 -1 $-1 0 forward { exppc 6 nubs 1 open 2 
	0 1 1 1 
	0 0 
	1 0 
	0.00050000000000000001 
	-1 
	spline forward { ref 1 } I I I I 
	} 0 0 #
coedge $-1 -1 -1 $-1 $41 $42 $72 $77 forward $17 $-1 #
edge $-1 -1 -1 $-1 $75 0 $63 3.1415926535897931 $41 $78 forward @7 unknown F #
vertex $-1 -1 -1 $-1 $43 $79 #
straight-curve $-1 -1 -1 $-1 -7.6695170105856629e-017 -0.61123205612847697 -3 0 1 0 I I #
pcurve $-1 -1 -1 $-1 0 forward { exppc 7 nubs 1 open 2 
	0 1 1 1 
	0 0 
	1 0 
	0.00050000000000000001 
	-1 
	spline forward { ref 0 } I I I I 
	} 0 0 #
pcurve $-1 -1 -1 $-1 0 forward { exppc 8 nubs 1 open 2 
	-1.5707963267948966 1 0 1 
	1 0.75598306416326644 
	1 1 
	0.00050000000000000001 
	-1 
	spline forward { ref 1 } I I I I 
	} 0 0 #
ellipse-curve $-1 -1 -1 $-1 4.4408920985006262e-016 -1.0979074944031699 -4.4408920985006262e-016 0 -1 0 -4.4408920985006262e-016 0 2.6146604455779503 1 I I #
vertex $80 -1 -1 $-1 $48 $81 #
intcurve-curve $-1 -1 -1 $-1 forward { exactcur 9 full nurbs 2 open 2 
	0 2 1 2 
	-2.6146604455779494 -1.0979074944031735 -6.9126743182691021e-016 1 
	-1.3249850681141702 -1.4017542509913803 -3.3530831706066485e-016 0.99331537704532402 
	1.7949047270229233e-015 -1.401754250991381 8.4520811273679832e-032 1 
	0 
	null_surface 
	null_surface 
	nullbs 
	nullbs 
	-1 
	-1 
	I I 
	0 
	0 
	0 
	
	-1 
	none F F 1 F 0 } I I #
point $-1 -1 -1 $-1 -2.6146604455779499 -1.0979074944031699 -1.3322676295501878e-015 #
point $-1 -1 -1 $-1 0 -1.0979074944031699 2.6146604455779499 #
coedge $-1 -1 -1 $-1 $57 $58 $61 $77 reversed $25 $82 #
pcurve $-1 -1 -1 $-1 0 forward { exppc 10 nubs 1 open 2 
	-3.1415926535897931 1 0 1 
	0 0.5 
	0 0 
	0.00050000000000000001 
	-1 
	spline forward { ref 1 } I I I I 
	} 0 0 #
pcurve $-1 -1 -1 $-1 0 forward { exppc 11 nubs 1 open 2 
	-1 1 0 1 
	1 1 
	0 1 
	0.00050000000000000001 
	-1 
	spline forward { ref 1 } I I I I 
	} 0 0 #
vertex $-1 -1 -1 $-1 $77 $83 #
intcurve-curve $-1 -1 -1 $-1 forward { exactcur 12 full nurbs 2 open 2 
	0 2 1 2 
	-4.9303806576313238e-032 -0.61123205612847709 2.9999999999999996 1 
	-5.5026370847370866e-032 -1.0071217231600731 3 0.78400283518489267 
	-2.8520856374543935e-017 -1.097907494403171 2.6146604455779499 1 
	0 
	null_surface 
	null_surface 
	nullbs 
	nullbs 
	-1 
	-1 
	I I 
	0 
	0 
	0 
	
	-1 
	none F F 1 F 0 } I I #
edge $-1 -1 -1 $-1 $63 0 $75 3.1415926535897922 $61 $84 forward @7 unknown F #
ellipse-curve $-1 -1 -1 $-1 0 -0.61123205612847697 0 0 1 0 0 0 3 1 I I #
point $-1 -1 -1 $-1 3.6739403974420599e-016 -0.61123205612847697 -3 #
rgb_color-st-attrib $-1 -1 $-1 $-1 $68 2 1 2 1 1 1 1 1 1 1 1 1 1 1 0 1 1 1 0 1 0 #
point $-1 -1 -1 $-1 1.7763568394002505e-015 -1.401754250991381 9.8607613152626476e-032 #
pcurve $-1 -1 -1 $-1 0 forward { exppc 13 nubs 1 open 2 
	-3.1415926535897922 1 0 1 
	0 1 
	0 0.5 
	0.00050000000000000001 
	-1 
	spline forward { ref 1 } I I I I 
	} 0 0 #
point $-1 -1 -1 $-1 0 -0.61123205612847697 3 #
ellipse-curve $-1 -1 -1 $-1 8.1148324959426865e-016 -0.61123205612847697 0 0 1 0 -4.4408920985006262e-016 0 -3 1 I I #
End-of-ACIS-data 