2600 0 1 0           
12 Elysium, Inc 14 ACIS 29.0.1 NT 24 Thu Mar 20 21:04:59 2025 
1 9.9999999999999995e-007 1e-010 
T @77 27NYX3K94Z5VZV5VH99KCY7MC8MUFXPE4DNUMV7VADQKQP7DQ8R4MMNXEB5CRGN8FATKEG597DTVE 
body $1 -1 -1 $-1 $2 $-1 $-1 F #
string_attrib-name_attrib-gen-attrib $-1 -1 $-1 $-1 $0 2 1 0 1 1 1 1 1 1 1 1 1 1 1 0 1 1 1 @13 ELY_PART_NAME @16 solid-object_new #
lump $-1 -1 -1 $-1 $-1 $3 $0 F #
shell $-1 -1 -1 $-1 $-1 $-1 $4 $-1 $2 F #
face $5 -1 -1 $-1 $6 $7 $3 $-1 $8 forward single F F #
rgb_color-st-attrib $-1 -1 $-1 $-1 $4 2 1 2 1 1 1 1 1 1 1 1 1 1 1 0 1 1 1 0.792156862745098 0.81960784313725499 0.92941176470588205 #
face $9 -1 -1 $-1 $10 $11 $3 $-1 $12 forward single F F #
loop $-1 -1 -1 $-1 $-1 $13 $4 F unknown #
plane-surface $14 -1 -1 $-1 -0.070000000000001047 -1.3999999999999999 -0.060000000000000525 0 -1 0 0 0 -1 forward_v I I I I #
rgb_color-st-attrib $-1 -1 $-1 $-1 $6 2 1 2 1 1 1 1 1 1 1 1 1 1 1 0 1 1 1 0.792156862745098 0.81960784313725499 0.92941176470588205 #
face $15 -1 -1 $-1 $16 $17 $3 $-1 $18 forward single F F #
loop $-1 -1 -1 $-1 $-1 $19 $6 F unknown #
plane-surface $20 -1 -1 $-1 -2.89091459124923 1.8405053893900201 1.4454572956246154 -0 1 0 0 -0 1 forward_v I I I I #
coedge $-1 -1 -1 $-1 $13 $13 $21 $22 forward $7 $-1 #
rgb_color-st-attrib $-1 -1 $-1 $-1 $8 2 1 2 1 1 1 1 1 1 1 1 1 1 1 0 1 1 1 0.792156862745098 0.81960784313725499 0.92941176470588205 #
rgb_color-st-attrib $-1 -1 $-1 $-1 $10 2 1 2 1 1 1 1 1 1 1 1 1 1 1 0 1 1 1 0.792156862745098 0.81960784313725499 0.92941176470588205 #
face $23 -1 -1 $-1 $-1 $24 $3 $-1 $25 forward single F F #
loop $-1 -1 -1 $-1 $-1 $26 $10 F unknown #
spline-surface $27 -1 -1 $-1 forward { exactsur 0 full nurbs 2 2 both open periodic none none 2 4 
	0 2 1 2 
	0 2 0.33333333333333331 2 0.66666666666666663 2 1 2 
	0 0.089999999999628155 -1.4999999999999991 1 
	1.2247841163063532e-017 0.9442341691142494 -1.2277426101664735 0.99002928082211683 
	5.6724314114263e-018 1.8405053893900236 -1.2045477463538461 1 
	2.5980762113533138 0.089999999999628155 -1.4999999999999993 0.50000000000000011 
	2.1265125794255613 0.94423416911424951 -1.2277426101664737 0.49501464041105853 
	2.0863378968274495 1.8405053893900236 -1.2045477463538463 0.50000000000000011 
	1.2990381056766573 0.089999999999628155 0.74999999999999911 1 
	1.0632562897127811 0.9442341691142494 0.6138713050832364 0.99002928082211683 
	1.0431689484137252 1.8405053893900236 0.6022738731769226 1 
	7.0046094713175251e-016 0.089999999999628155 2.9999999999999978 0.50000000000000011 
	5.8557167553054264e-016 0.94423416911424951 2.4554852203329465 0.49501464041105853 
	5.6816486826238225e-016 1.8405053893900236 2.4090954927076917 0.50000000000000011 
	-1.2990381056766569 0.089999999999628155 0.75000000000000022 1 
	-1.0632562897127806 0.9442341691142494 0.6138713050832374 0.99002928082211683 
	-1.043168948413725 1.8405053893900236 0.60227387317692371 1 
	-2.5980762113533151 0.089999999999628155 -1.4999999999999967 0.50000000000000011 
	-2.1265125794255622 0.94423416911424951 -1.2277426101664715 0.49501464041105853 
	-2.0863378968274509 1.8405053893900236 -1.2045477463538441 0.50000000000000011 
	-3.6739403974420574e-016 0.089999999999628155 -1.4999999999999991 1 
	-2.8846237038037416e-016 0.9442341691142494 -1.2277426101664735 0.99002928082211683 
	-2.893566769870528e-016 1.8405053893900236 -1.2045477463538461 1 
	0 
	0 
	0 
	0 
	0 
	0 
	0 
	F 1 F 0 F 1 F 0 } I I I I #
coedge $-1 -1 -1 $-1 $28 $28 $29 $30 forward $11 $-1 #
rgb_color-st-attrib $-1 -1 $-1 $-1 $12 2 1 2 1 1 1 1 1 1 1 1 1 1 1 0 1 1 1 0.792156862745098 0.81960784313725499 0.92941176470588205 #
coedge $-1 -1 -1 $-1 $31 $32 $13 $22 reversed $24 $33 #
edge $-1 -1 -1 $-1 $34 -3.4463173056070329e-014 $34 6.2831853071795516 $13 $35 forward @7 unknown F #
rgb_color-st-attrib $-1 -1 $-1 $-1 $16 2 1 2 1 1 1 1 1 1 1 1 1 1 1 0 1 1 1 0.792156862745098 0.81960784313725499 0.92941176470588205 #
loop $-1 -1 -1 $-1 $-1 $31 $16 F unknown #
spline-surface $36 -1 -1 $-1 forward { exactsur 1 full nurbs 2 2 both open periodic none none 2 4 
	0 2 1 2 
	0 2 0.33333333333333331 2 0.66666666666666663 2 1 2 
	-3.4463173056072221e-016 -1.3999999999999999 -0.010000000000000548 1 
	-1.3785269222425624e-017 -1.4000000000000004 -1.4999999999999996 0.70710678118654735 
	3.3526588471893002e-030 0.089999999999998637 -1.4999999999999996 1 
	0.0173205080756887 -1.3999999999999999 -0.010000000000000545 0.50000000000000011 
	2.5980762113533142 -1.4000000000000004 -1.4999999999999991 0.35355339059327373 
	2.5980762113533138 0.089999999999998609 -1.4999999999999989 0.50000000000000011 
	0.0086602540378441766 -1.3999999999999999 0.0049999999999996905 1 
	1.2990381056766569 -1.4000000000000004 0.74999999999999933 0.70710678118654735 
	1.2990381056766569 0.089999999999998623 0.74999999999999911 1 
	-3.488437751101784e-016 -1.3999999999999999 0.019999999999999928 0.50000000000000011 
	-6.4559195164086061e-016 -1.4000000000000004 2.9999999999999973 0.35355339059327373 
	-6.318066824184314e-016 0.089999999999998637 2.9999999999999973 0.50000000000000011 
	-0.0086602540378448722 -1.3999999999999999 0.0049999999999996939 1 
	-1.2990381056766576 -1.4000000000000004 0.74999999999999967 0.70710678118654735 
	-1.2990381056766573 0.089999999999998651 0.74999999999999956 1 
	-0.017320508075689398 -1.3999999999999999 -0.010000000000000536 0.50000000000000011 
	-2.5980762113533156 -1.4000000000000004 -1.4999999999999982 0.35355339059327373 
	-2.5980762113533151 0.089999999999998664 -1.499999999999998 0.50000000000000011 
	-3.4708102415901696e-016 -1.3999999999999999 -0.010000000000000548 1 
	-3.8117930896663145e-016 -1.4000000000000004 -1.4999999999999996 0.70710678118654735 
	-3.6739403974420239e-016 0.089999999999998637 -1.4999999999999996 1 
	0 
	0 
	0 
	0 
	0 
	0 
	0 
	F 1 F 0 F 1 F 0 } I I I I #
coedge $-1 -1 -1 $-1 $37 $38 $39 $40 forward $17 $41 #
rgb_color-st-attrib $-1 -1 $-1 $-1 $18 2 1 2 1 1 1 1 1 1 1 1 1 1 1 0 1 1 1 0.792156862745098 0.81960784313725499 0.92941176470588205 #
coedge $-1 -1 -1 $-1 $19 $19 $38 $42 forward $11 $-1 #
coedge $-1 -1 -1 $-1 $38 $39 $19 $30 reversed $17 $43 #
edge $-1 -1 -1 $-1 $44 0 $45 3.1415926535897931 $19 $46 forward @7 unknown F #
coedge $-1 -1 -1 $-1 $47 $21 $32 $48 forward $24 $49 #
coedge $-1 -1 -1 $-1 $21 $47 $31 $48 reversed $24 $50 #
pcurve $-1 -1 -1 $-1 0 forward { exppc 2 nubs 1 open 2 
	-6.2831853071795516 1 3.4638958368304884e-014 1 
	0 1 
	0 0 
	0.00050000000000000001 
	-1 
	spline forward { ref 1 } I I I I 
	} 0 0 #
vertex $-1 -1 -1 $-1 $22 $51 #
ellipse-curve $-1 -1 -1 $-1 0 -1.4000000000000001 0 -2.2204460492501976e-014 -1 -2.2204460492501976e-014 0 2.2204460492503131e-016 -0.010000000000000521 1 I I #
rgb_color-st-attrib $-1 -1 $-1 $-1 $25 2 1 2 1 1 1 1 1 1 1 1 1 1 1 0 1 1 1 0.792156862745098 0.81960784313725499 0.92941176470588205 #
coedge $-1 -1 -1 $-1 $39 $26 $47 $52 reversed $17 $53 #
coedge $-1 -1 -1 $-1 $26 $29 $28 $42 reversed $17 $54 #
coedge $-1 -1 -1 $-1 $29 $37 $26 $40 reversed $17 $55 #
edge $-1 -1 -1 $-1 $45 0 $56 1 $26 $57 forward @7 unknown F #
pcurve $-1 -1 -1 $-1 0 forward { exppc 3 nubs 1 open 2 
	0 1 1 1 
	1 1 
	0 1 
	0.00050000000000000001 
	-1 
	spline forward { ref 0 } I I I I 
	} 0 0 #
edge $-1 -1 -1 $-1 $45 0 $44 3.141592653589794 $28 $58 forward @7 unknown F #
pcurve $-1 -1 -1 $-1 0 forward { exppc 4 nubs 1 open 2 
	-3.1415926535897931 1 0 1 
	1 0 
	1 0.5 
	0.00050000000000000001 
	-1 
	spline forward { ref 0 } I I I I 
	} 0 0 #
vertex $-1 -1 -1 $-1 $30 $59 #
vertex $-1 -1 -1 $-1 $30 $60 #
ellipse-curve $-1 -1 -1 $-1 0 1.8405053893900201 0 0 1 0 0 0 1.2045477463538461 1 I I #
coedge $-1 -1 -1 $-1 $32 $31 $37 $52 forward $24 $61 #
edge $-1 -1 -1 $-1 $34 -4.4415843048793572e-032 $56 1.5707963267948966 $31 $62 forward @7 unknown F #
pcurve $-1 -1 -1 $-1 0 forward { exppc 5 nubs 1 open 2 
	-4.4415843048793572e-032 1 1.5707963267948966 1 
	0 0 
	1 0 
	0.00050000000000000001 
	-1 
	spline forward { ref 1 } I I I I 
	} 0 0 #
pcurve $-1 -1 -1 $-1 0 forward { exppc 6 nubs 1 open 2 
	-1.5707963267948966 1 0 1 
	1 1 
	0 1 
	0.00050000000000000001 
	-1 
	spline forward { ref 1 } I I I I 
	} 0 0 #
point $-1 -1 -1 $-1 -3.4463173056072221e-016 -1.3999999999999999 -0.010000000000000548 #
edge $-1 -1 -1 $-1 $56 -3.1887325054858058e-043 $56 6.2831853071795862 $37 $63 forward @7 unknown F #
pcurve $-1 -1 -1 $-1 0 forward { exppc 7 nubs 1 open 2 
	-6.2831853071795862 1 0 1 
	0 1 
	0 0 
	0.00050000000000000001 
	-1 
	spline forward { ref 0 } I I I I 
	} 0 0 #
pcurve $-1 -1 -1 $-1 0 forward { exppc 8 nubs 1 open 2 
	-3.141592653589794 1 0 1 
	1 0.5 
	1 1 
	0.00050000000000000001 
	-1 
	spline forward { ref 0 } I I I I 
	} 0 0 #
pcurve $-1 -1 -1 $-1 0 forward { exppc 9 nubs 1 open 2 
	-1 1 0 1 
	0 0 
	1 0 
	0.00050000000000000001 
	-1 
	spline forward { ref 0 } I I I I 
	} 0 0 #
vertex $-1 -1 -1 $-1 $40 $64 #
intcurve-curve $-1 -1 -1 $-1 forward { exactcur 10 full nurbs 2 open 2 
	0 2 1 2 
	5.6724314114263e-018 1.8405053893900236 -1.2045477463538461 1 
	1.2247841163063532e-017 0.94423416911424951 -1.2277426101664735 0.99002928082211683 
	0 0.089999999999628155 -1.4999999999999991 1 
	0 
	null_surface 
	null_surface 
	nullbs 
	nullbs 
	-1 
	-1 
	I I 
	0 
	0 
	0 
	
	-1 
	none F F 1 F 0 } I I #
ellipse-curve $-1 -1 -1 $-1 -2.5886861729333383e-016 1.8405053893900201 -3.398070712417615e-032 0 1 0 4.0638317149257333e-016 0 -1.2045477463538461 1 I I #
point $-1 -1 -1 $-1 0 1.8405053893900201 1.2045477463538461 #
point $-1 -1 -1 $-1 1.4751455419923957e-016 1.8405053893900201 -1.2045477463538461 #
pcurve $-1 -1 -1 $-1 0 forward { exppc 11 nubs 1 open 2 
	-3.1887325054858058e-043 1 6.2831853071795862 1 
	1 0 
	1 1 
	0.00050000000000000001 
	-1 
	spline forward { ref 1 } I I I I 
	} 0 0 #
ellipse-curve $-1 -1 -1 $-1 -3.30846461338293e-016 0.089999999999999081 -0.010000000000000897 1 -9.2518585385430477e-018 2.2204460492503131e-016 -1.3785269222429208e-017 -1.4899999999999989 3.4867941867133818e-016 1 I I #
ellipse-curve $-1 -1 -1 $-1 0 0.089999999999888225 1.6653345369377348e-016 -1.9112824685847917e-014 -1 -7.3533771664339526e-014 3.3526588471893002e-030 1.1030065749650929e-013 -1.5 1 I I #
point $-1 -1 -1 $-1 3.3526588471893002e-030 0.089999999999998526 -1.4999999999999998 #
End-of-ACIS-data 